#!OML:ASF F:\VICON\USERDATA\INSTALL\rory3\rory3.ASF
:FULLY-SPECIFIED
:DEGREES
2495
root 1.30575 17.2978 -1.2827 25.1611 -2.8198 5.10342
lowerback 26.4675 -0.712622 4.1573
upperback 10.2633 0.464507 6.59425
thorax -3.25025 0.16249 4.71923
lowerneck -3.62963 -10.2974 -16.6348
upperneck -14.5852 -11.9588 22.9452
head -0.957954 -6.20618 9.67551
rclavicle 3.49861e-014 1.59028e-015
rhumerus -40.5348 -35.8343 -1.98781
rradius 28.3107
rwrist 9.3165
rhand -27.2558 -2.45026
rfingers 7.12502
rthumb -0.667149 -32.429
lclavicle 3.49861e-014 1.59028e-015
lhumerus -28.9571 -14.5621 21.443
lradius 34.1559
lwrist 35.4781
lhand -5.03125 25.3952
lfingers 7.12502
lthumb 20.7634 54.3043
rfemur -38.3721 8.28399 3.12816
rtibia 25.4191
rfoot -10.7841 -15.8807
rtoes -25.7166
lfemur -37.2313 -6.37289 -25.3728
ltibia 22.4682
lfoot -9.28712 2.42421
ltoes -8.80561
2496
root 1.30881 17.2966 -1.28323 25.1864 -2.96368 5.02135
lowerback 26.4722 -0.766922 4.1914
upperback 10.2513 0.398888 6.51471
thorax -3.26166 0.132308 4.62995
lowerneck -3.62331 -10.2068 -16.5819
upperneck -14.5215 -11.8461 22.8842
head -0.972306 -6.14809 9.6554
rclavicle -1.43125e-014 9.38264e-014
rhumerus -40.6751 -35.7911 -1.92542
rradius 28.2619
rwrist 9.59543
rhand -27.0637 -2.40384
rfingers 7.12502
rthumb -0.481568 -32.383
lclavicle -1.43125e-014 9.38264e-014
lhumerus -28.8237 -15.0843 21.3004
lradius 34.0924
lwrist 35.9442
lhand -4.94915 25.6346
lfingers 7.12502
lthumb 20.8423 54.5351
rfemur -38.4062 8.43532 3.11992
rtibia 25.3033
rfoot -10.3121 -15.918
rtoes -26.7026
lfemur -37.3091 -6.31524 -25.3098
ltibia 22.5521
lfoot -9.39014 2.59951
ltoes -9.64273
2497
root 1.31126 17.2986 -1.28266 25.1881 -3.07339 4.90057
lowerback 26.4054 -0.825868 4.28131
upperback 10.3143 0.328502 6.43697
thorax -3.15458 0.101076 4.50956
lowerneck -3.66677 -10.152 -16.5141
upperneck -14.5313 -11.7661 22.8628
head -0.989889 -6.10866 9.64306
rclavicle -2.22639e-014 -1.05753e-013
rhumerus -40.8738 -35.8076 -1.85729
rradius 28.244
rwrist 9.86889
rhand -26.917 -2.55245
rfingers 7.12502
rthumb -0.339936 -32.5319
lclavicle -2.22639e-014 -1.05753e-013
lhumerus -28.6714 -15.5863 21.1705
lradius 34.0772
lwrist 36.4743
lhand -5.0122 25.9018
lfingers 7.12502
lthumb 20.7817 54.8089
rfemur -38.3945 8.53748 3.20742
rtibia 25.1909
rfoot -10.1643 -15.925
rtoes -27.0549
lfemur -37.3303 -6.28696 -25.1937
ltibia 22.6307
lfoot -9.3662 2.70792
ltoes -9.80616
2498
root 1.31564 17.3003 -1.28458 25.1975 -3.28952 4.88273
lowerback 26.4053 -0.855759 4.26059
upperback 10.3396 0.274526 6.31818
thorax -3.12395 0.0762795 4.40427
lowerneck -3.66862 -10.0898 -16.534
upperneck -14.5336 -11.6777 22.9007
head -1.00238 -6.06482 9.66763
rclavicle 1.43125e-014 -8.74653e-015
rhumerus -41.103 -35.9397 -1.67091
rradius 28.2244
rwrist 10.2122
rhand -26.8451 -2.48056
rfingers 7.12502
rthumb -0.270476 -32.4601
lclavicle 1.43125e-014 -8.74653e-015
lhumerus -28.6146 -14.9446 21.1085
lradius 33.8304
lwrist 35.776
lhand -5.2154 25.7579
lfingers 7.12502
lthumb 20.5864 54.6863
rfemur -38.4319 8.65075 3.13162
rtibia 25.0801
rfoot -10.0652 -15.8893
rtoes -27.3596
lfemur -37.3771 -6.29756 -25.1871
ltibia 22.7041
lfoot -9.3707 2.82481
ltoes -8.94678
2499
root 1.31993 17.3002 -1.28608 25.1814 -3.51047 4.8532
lowerback 26.4733 -0.864505 4.2583
upperback 10.3411 0.259467 6.20956
thorax -3.15432 0.0702859 4.29059
lowerneck -3.73161 -10.0621 -16.5856
upperneck -14.4001 -11.6447 22.9282
head -0.954482 -6.0403 9.67859
rclavicle -7.95139e-015 2.38542e-014
rhumerus -41.3517 -35.8646 -1.51024
rradius 28.2723
rwrist 10.1813
rhand -26.7581 -2.35281
rfingers 7.12502
rthumb -0.18649 -32.3325
lclavicle -7.95139e-015 2.38542e-014
lhumerus -28.51 -14.4634 21.0801
lradius 33.619
lwrist 35.0776
lhand -5.20123 25.4902
lfingers 7.12502
lthumb 20.6001 54.4171
rfemur -38.4472 8.69211 3.10621
rtibia 24.9793
rfoot -10.049 -15.6822
rtoes -27.6305
lfemur -37.4046 -6.22747 -25.211
ltibia 22.768
lfoot -9.445 3.01568
ltoes -9.29528
2500
root 1.32316 17.3003 -1.28651 25.1907 -3.67009 4.7948
lowerback 26.4458 -0.888639 4.23747
upperback 10.3638 0.213756 6.13387
thorax -3.11407 0.0487193 4.23054
lowerneck -3.77807 -10.0082 -16.5482
upperneck -14.3089 -11.5788 22.8756
head -0.941297 -6.00226 9.65466
rclavicle -1.59028e-015 -1.59028e-014
rhumerus -41.5226 -35.7704 -1.426
rradius 28.2683
rwrist 10.1586
rhand -26.7223 -2.28085
rfingers 7.12502
rthumb -0.151872 -32.2605
lclavicle -1.59028e-015 -1.59028e-014
lhumerus -28.3458 -14.4913 21.0018
lradius 33.448
lwrist 35.0392
lhand -5.05854 25.4015
lfingers 7.12502
lthumb 20.7372 54.3135
rfemur -38.4718 8.71602 3.13565
rtibia 24.8996
rfoot -10.0373 -15.5071
rtoes -27.5602
lfemur -37.4497 -6.15013 -25.1961
ltibia 22.8356
lfoot -9.55318 3.17144
ltoes -9.97732
2501
root 1.3254 17.2993 -1.28773 25.2153 -3.82739 4.72896
lowerback 26.4014 -0.892465 4.20026
upperback 10.3786 0.190187 6.07709
thorax -3.07588 0.037148 4.19425
lowerneck -3.79564 -9.94995 -16.493
upperneck -14.2544 -11.5101 22.765
head -0.950506 -5.96367 9.61232
rclavicle -4.77083e-015 2.62396e-014
rhumerus -41.6793 -35.5936 -1.34951
rradius 28.2478
rwrist 10.1073
rhand -26.691 -2.30495
rfingers 7.12502
rthumb -0.121641 -32.2847
lclavicle -4.77083e-015 2.62396e-014
lhumerus -28.2191 -14.4644 20.9634
lradius 33.2944
lwrist 34.9973
lhand -5.09527 25.1971
lfingers 7.12502
lthumb 20.7019 54.113
rfemur -38.5211 8.75169 3.16637
rtibia 24.8191
rfoot -9.95827 -15.3947
rtoes -27.3061
lfemur -37.5066 -6.03126 -25.1881
ltibia 22.9076
lfoot -9.57285 3.22591
ltoes -9.85792
2502
root 1.32748 17.2982 -1.28994 25.2641 -3.9293 4.61267
lowerback 26.3773 -0.948868 4.27931
upperback 10.3786 0.129633 5.99956
thorax -3.06119 0.0106613 4.07948
lowerneck -3.86853 -9.87677 -16.4662
upperneck -14.1606 -11.4146 22.7032
head -0.937952 -5.90832 9.5884
rclavicle -3.81667e-014 -1.03368e-014
rhumerus -41.827 -35.6177 -1.20354
rradius 28.1589
rwrist 10.2965
rhand -26.6211 -2.29467
rfingers 7.12502
rthumb -0.0541213 -32.2744
lclavicle -3.81667e-014 -1.03368e-014
lhumerus -28.2499 -14.5065 20.9329
lradius 33.2471
lwrist 35.0264
lhand -5.1835 25.0621
lfingers 7.12502
lthumb 20.6171 53.9872
rfemur -38.5897 8.84337 3.2361
rtibia 24.7357
rfoot -9.80109 -15.4109
rtoes -27.7748
lfemur -37.6015 -5.94274 -25.0984
ltibia 22.9877
lfoot -9.58282 3.26105
ltoes -9.64599
2503
root 1.32854 17.2978 -1.29397 25.2851 -4.07011 4.57321
lowerback 26.4209 -1.03417 4.16472
upperback 10.401 -0.00658403 5.9525
thorax -3.05181 -0.0577676 4.13272
lowerneck -4.08069 -9.77273 -16.5715
upperneck -13.9786 -11.269 22.6282
head -0.880189 -5.81215 9.57575
rclavicle 2.54444e-014 -5.40694e-014
rhumerus -41.5966 -35.5037 -1.32664
rradius 28.0989
rwrist 10.311
rhand -26.6002 -2.35748
rfingers 7.12502
rthumb -0.0339042 -32.3372
lclavicle 2.54444e-014 -5.40694e-014
lhumerus -28.5363 -14.2463 20.9379
lradius 33.2783
lwrist 34.9095
lhand -5.13548 25.1074
lfingers 7.12502
lthumb 20.6632 54.0275
rfemur -38.6571 9.00903 3.18384
rtibia 24.6767
rfoot -10.5205 -15.4428
rtoes -25.3696
lfemur -37.6861 -5.8904 -25.0686
ltibia 23.0601
lfoot -9.6558 3.3765
ltoes -10.0373
2504
root 1.3306 17.2985 -1.29758 25.3122 -4.19201 4.51042
lowerback 26.5023 -1.1488 4.0303
upperback 10.3817 -0.175776 5.94117
thorax -3.10463 -0.143618 4.24824
lowerneck -4.17431 -9.60994 -16.7415
upperneck -13.8758 -11.0459 22.5738
head -0.873836 -5.6824 9.59854
rclavicle 2.8625e-014 3.97569e-014
rhumerus -41.2701 -35.2994 -1.49419
rradius 28.0889
rwrist 10.3237
rhand -26.4307 -2.15508
rfingers 7.12502
rthumb 0.129804 -32.1348
lclavicle 2.8625e-014 3.97569e-014
lhumerus -28.9303 -13.9485 20.9675
lradius 33.2912
lwrist 34.708
lhand -5.053 25.2273
lfingers 7.12502
lthumb 20.7425 54.1387
rfemur -38.7197 9.10957 3.18591
rtibia 24.6224
rfoot -9.58889 -15.462
rtoes -28.1093
lfemur -37.7679 -5.81345 -25.0304
ltibia 23.1306
lfoot -9.72146 3.50788
ltoes -10.6818
2505
root 1.33083 17.2977 -1.30062 25.3696 -4.31308 4.53176
lowerback 26.4939 -1.17317 3.91377
upperback 10.366 -0.239324 5.85088
thorax -3.11656 -0.175154 4.23291
lowerneck -4.16969 -9.5308 -16.6994
upperneck -13.907 -10.9358 22.552
head -0.909377 -5.62899 9.59641
rclavicle 9.54166e-015 2.54444e-014
rhumerus -41.4848 -35.4135 -1.27795
rradius 28.0307
rwrist 10.6395
rhand -26.2136 -2.05519
rfingers 7.12502
rthumb 0.339406 -32.0347
lclavicle 9.54166e-015 2.54444e-014
lhumerus -28.8599 -13.7683 20.8919
lradius 33.2196
lwrist 34.4572
lhand -4.94191 25.3272
lfingers 7.12502
lthumb 20.8492 54.2269
rfemur -38.8297 9.11139 3.12009
rtibia 24.6015
rfoot -9.61884 -15.3527
rtoes -27.3484
lfemur -37.8584 -5.78357 -25.0665
ltibia 23.1703
lfoot -9.78606 3.56793
ltoes -10.5163
2506
root 1.32997 17.2993 -1.30237 25.4013 -4.36165 4.47668
lowerback 26.4411 -1.16383 4.07137
upperback 10.3902 -0.209274 5.65196
thorax -3.06785 -0.152332 3.91116
lowerneck -4.17396 -9.54574 -16.3383
upperneck -13.9719 -10.9526 22.5399
head -0.946122 -5.65565 9.53221
rclavicle 3.18055e-015 2.38542e-014
rhumerus -42.2576 -35.5371 -0.905834
rradius 28.0383
rwrist 10.8684
rhand -26.149 -2.03673
rfingers 7.12502
rthumb 0.401872 -32.0161
lclavicle 3.18055e-015 2.38542e-014
lhumerus -28.3354 -13.7791 20.6118
lradius 33.0975
lwrist 34.3374
lhand -5.01267 25.1293
lfingers 7.12502
lthumb 20.7812 54.0365
rfemur -38.8736 9.14864 3.16296
rtibia 24.5802
rfoot -9.61235 -15.3188
rtoes -26.7881
lfemur -37.9196 -5.74619 -25.0085
ltibia 23.2216
lfoot -9.84992 3.59054
ltoes -9.9109
2507
root 1.32833 17.2993 -1.30506 25.4092 -4.47191 4.44555
lowerback 26.454 -1.14524 3.99661
upperback 10.402 -0.209932 5.55846
thorax -3.06224 -0.152538 3.85075
lowerneck -4.22228 -9.51239 -16.2238
upperneck -13.9524 -10.9058 22.5099
head -0.951094 -5.63347 9.50389
rclavicle 2.70347e-014 6.20208e-014
rhumerus -42.5667 -35.4026 -0.708666
rradius 27.9743
rwrist 10.8393
rhand -26.1898 -2.00967
rfingers 7.12502
rthumb 0.362476 -31.9891
lclavicle 2.70347e-014 6.20208e-014
lhumerus -28.1184 -13.6781 20.4821
lradius 32.9874
lwrist 34.2021
lhand -5.01602 24.988
lfingers 7.12502
lthumb 20.778 53.8955
rfemur -38.9241 9.18655 3.18567
rtibia 24.5452
rfoot -9.89057 -15.243
rtoes -27.2039
lfemur -37.9791 -5.68053 -24.9907
ltibia 23.3036
lfoot -9.91239 3.63544
ltoes -9.93298
2508
root 1.32735 17.3004 -1.30779 25.3999 -4.61163 4.35654
lowerback 26.5005 -1.1644 3.90302
upperback 10.428 -0.259123 5.50492
thorax -3.05406 -0.178181 3.86009
lowerneck -4.28504 -9.45716 -16.2989
upperneck -13.9228 -10.8233 22.5359
head -0.941324 -5.58571 9.52833
rclavicle -9.54166e-015 5.725e-014
rhumerus -42.6089 -35.3035 -0.637205
rradius 27.9192
rwrist 10.8057
rhand -26.1687 -1.83806
rfingers 7.12502
rthumb 0.382815 -31.8175
lclavicle -9.54166e-015 5.725e-014
lhumerus -28.1246 -13.5999 20.446
lradius 32.8697
lwrist 34.1196
lhand -4.99085 24.8795
lfingers 7.12502
lthumb 20.8022 53.7843
rfemur -38.9773 9.2017 3.29039
rtibia 24.4864
rfoot -10.1717 -15.0934
rtoes -28.1209
lfemur -38.0319 -5.59427 -24.9193
ltibia 23.4147
lfoot -9.87693 3.71159
ltoes -10.3815
2509
root 1.32657 17.3006 -1.31215 25.421 -4.68662 4.18949
lowerback 26.5249 -1.20999 3.94006
upperback 10.4572 -0.311901 5.46406
thorax -3.03116 -0.202885 3.80903
lowerneck -4.38285 -9.39516 -16.3498
upperneck -13.8663 -10.7291 22.5743
head -0.92072 -5.53111 9.55089
rclavicle -4.29375e-014 -6.99722e-014
rhumerus -42.6753 -35.3021 -0.506168
rradius 27.8161
rwrist 10.9546
rhand -25.9903 -1.724
rfingers 7.12502
rthumb 0.555135 -31.703
lclavicle -4.29375e-014 -6.99722e-014
lhumerus -28.0709 -13.5465 20.4307
lradius 32.6965
lwrist 33.9771
lhand -5.09941 24.8966
lfingers 7.12502
lthumb 20.6979 53.8129
rfemur -39.0301 9.3113 3.43241
rtibia 24.4207
rfoot -9.60251 -15.1187
rtoes -28.6845
lfemur -38.1328 -5.52985 -24.7387
ltibia 23.5482
lfoot -9.8751 3.77739
ltoes -10.3385
